<svg xmlns="http://www.w3.org/2000/svg" xmlns:xlink="http://www.w3.org/1999/xlink" version="1.1" x="0px" y="0px" viewBox="0 0 512 640" enable-background="new 0 0 512 512" xml:space="preserve"><path d="M463.672,59.234l-385.68,0.109c-11.328,0-20.547-9.203-20.562-20.531c0-11.344,9.227-20.578,20.562-20.578  h385.695c5.031,0,9.094-4.078,9.094-9.109S468.719,0,463.688,0H77.992C56.609,0,39.219,17.406,39.219,38.797v434.547  C39.273,494.656,56.664,512,77.992,512h385.68c5.031,0,9.109-4.094,9.109-9.125V68.344  C472.781,63.328,468.703,59.234,463.672,59.234z M128.219,493.781H77.992c-11.328,0-20.547-9.219-20.562-20.531V72.641l7.648,2.703  c4.133,1.469,8.484,2.219,12.914,2.219h50.227V493.781z M454.562,493.781H146.438V77.562h308.125V493.781z"/><text x="0" y="527" fill="#000000" font-size="5px" font-weight="bold" font-family="'Helvetica Neue', Helvetica, Arial-Unicode, Arial, Sans-serif">Created by lastspark</text><text x="0" y="532" fill="#000000" font-size="5px" font-weight="bold" font-family="'Helvetica Neue', Helvetica, Arial-Unicode, Arial, Sans-serif">from the Noun Project</text></svg>