<svg xmlns="http://www.w3.org/2000/svg" xmlns:xlink="http://www.w3.org/1999/xlink" version="1.1" x="0px" y="0px" viewBox="0 0 100 100" enable-background="new 0 0 100 100" xml:space="preserve"><g><path d="M16,32v36c0,1.105-0.896,2-2,2s-2-0.895-2-2V32c0-1.104,0.896-2,2-2S16,30.896,16,32z M26,12c-1.104,0-2,0.896-2,2v72   c0,1.105,0.896,2,2,2c1.104,0,2-0.895,2-2V14C28,12.896,27.104,12,26,12z M38,32c-1.104,0-2,0.896-2,2v32c0,1.105,0.896,2,2,2   c1.104,0,2-0.895,2-2V34C40,32.896,39.104,32,38,32z M2,42c-1.104,0-2,0.896-2,2v12c0,1.105,0.896,2,2,2s2-0.895,2-2V44   C4,42.896,3.104,42,2,42z M50,42c-1.104,0-2,0.896-2,2v12c0,1.105,0.896,2,2,2c1.105,0,2-0.895,2-2V44C52,42.896,51.105,42,50,42z    M98,42c-1.105,0-2,0.896-2,2v12c0,1.105,0.895,2,2,2s2-0.895,2-2V44C100,42.896,99.105,42,98,42z M86,30c-1.105,0-2,0.896-2,2v36   c0,1.105,0.895,2,2,2s2-0.895,2-2V32C88,30.896,87.105,30,86,30z M74,12c-1.105,0-2,0.896-2,2v72c0,1.105,0.895,2,2,2s2-0.895,2-2   V14C76,12.896,75.105,12,74,12z M62,32c-1.105,0-2,0.896-2,2v32c0,1.105,0.895,2,2,2s2-0.895,2-2V34C64,32.896,63.105,32,62,32z"></path></g></svg>